<svg width="860" height="316" xmlns="http://www.w3.org/2000/svg" xmlns:xlink="http://www.w3.org/1999/xlink" xml:space="preserve" overflow="hidden"><defs><clipPath id="clip0"><rect x="210" y="331" width="860" height="316"/></clipPath></defs><g clip-path="url(#clip0)" transform="translate(-210 -331)"><path d="M-937.503 2951.07C-937.503 2948.44-935.364 2946.3-932.726 2946.3L-814.874 2946.3C-812.235 2946.3-810.096 2948.44-810.096 2951.07L-810.096 3005.22C-810.096 3007.86-812.235 3010-814.874 3010L-932.726 3010C-935.364 3010-937.503 3007.86-937.503 3005.22Z" stroke="#3A414A" stroke-width="2.38889" fill="#FFFFFF" transform="matrix(1 0 0 1.00211 1277.04 -2605.57)"/><path d="M8.94105 0 8.94105-6.44744 4.86366-6.44744 4.86366 0 1.55008 0 1.55008-15.1526 4.86366-15.1526 4.86366-9.18817 8.94105-9.18817 8.94105-15.1526 12.2546-15.1526 12.2546 0 8.94105 0" fill="#4C535D" transform="matrix(1 0 0 1.00211 375.625 386.145)"/><path d="M5.57131-15.1526C10.5024-15.1526 12.9398-12.659 12.9061-7.69425 12.8724-2.97661 10.8843 0 6.24526 0L1.51638 0 1.51638-15.1526 5.57131-15.1526ZM5.97568-2.56101C8.72764-2.63963 9.55884-4.66148 9.57007-7.69425 9.5813-10.7607 8.54792-12.6253 5.51515-12.5916L4.82997-12.5916 4.82997-2.56101 5.97568-2.56101" fill="#4C535D" transform="matrix(1 0 0 1.00211 389.43 386.145)"/><path d="M6.91921-15.1526C10.4687-15.1189 12.8275-13.8272 12.8275-10.3676 12.8275-6.9866 10.5698-5.40282 7.054-5.34666L4.8412-5.34666 4.8412 0 1.52762 0 1.52762-15.1526 6.91921-15.1526ZM6.63839-7.89643C8.48052-7.8852 9.49144-8.59285 9.49144-10.3114 9.49144-12.0749 8.37943-12.5579 6.54853-12.5804L4.8412-12.5804 4.8412-7.89643 6.63839-7.89643" fill="#4C535D" transform="matrix(1 0 0 1.00211 403.235 386.145)"/><path d="M1.53885 0 1.53885-15.1526 12.4119-15.1526 12.4119-12.5916 4.85243-12.5916 4.85243-8.95229 11.7267-8.95229 11.7267-6.39128 4.85243-6.39128 4.85243-2.56101 12.8724-2.56101 12.8724 0 1.53885 0" fill="#4C535D" transform="matrix(1 0 0 1.00211 417.039 386.145)"/><path d="M-937.503 3046.63C-937.503 3043.99-935.364 3041.85-932.726 3041.85L-814.874 3041.85C-812.235 3041.85-810.096 3043.99-810.096 3046.63L-810.096 3102.2C-810.096 3104.83-812.235 3106.97-814.874 3106.97L-932.726 3106.97C-935.364 3106.97-937.503 3104.83-937.503 3102.2Z" stroke="#3A414A" stroke-width="2.38889" fill="#FFFFFF" transform="matrix(1 0 0 1.00211 1277.04 -2605.57)"/><path d="M6.38696-13.987C9.66339-13.9559 11.8408-12.7636 11.8408-9.57007 11.8408-6.44917 9.7567-4.98722 6.51138-4.93538L4.4688-4.93538 4.4688 0 1.41011 0 1.41011-13.987 6.38696-13.987ZM6.12775-7.28901C7.82817-7.27865 8.76133-7.93186 8.76133-9.51823 8.76133-11.1461 7.73486-11.5919 6.0448-11.6127L4.4688-11.6127 4.4688-7.28901 6.12775-7.28901" fill="#4C535D" transform="matrix(1 0 0 1.00211 384.12 471.174)"/><path d="M1.42048 0 1.42048-13.987 11.4571-13.987 11.4571-11.623 4.47917-11.623 4.47917-8.26365 10.8247-8.26365 10.8247-5.89964 4.47917-5.89964 4.47917-2.364 11.8822-2.364 11.8822 0 1.42048 0" fill="#4C535D" transform="matrix(1 0 0 1.00211 396.863 471.174)"/><path d="M7.90075-11.623 7.90075 0 4.84206 0 4.84206-11.623 0.632475-11.623 0.632475-13.987 12.1103-13.987 12.1103-11.623 7.90075-11.623" fill="#4C535D" transform="matrix(1 0 0 1.00211 409.606 471.174)"/><path d="M11.4882-0.342159C11.4571 2.91353 9.64265 4.4999 6.38696 4.4999 3.86743 4.4999 2.23958 3.52527 1.75227 1.48269L4.6658 1.14053C4.84206 1.95964 5.51601 2.60248 6.46991 2.60248 8.29475 2.60248 8.66802 0.99537 8.59544-0.99537 8.5747-1.41011 8.64728-1.82485 8.59544-2.18774 8.0148-0.881317 6.89501-0.124421 5.19459-0.124421 2.20848-0.124421 1.28569-2.63358 1.28569-5.70264 1.28569-8.21181 1.95964-10.1196 3.59785-10.9905 4.11627-11.2601 4.71764-11.3949 5.41233-11.3949 7.07128-11.3949 8.03554-10.5862 8.59544-9.41455L8.64728-9.41455C8.65765-10.0159 8.69912-10.7106 8.79244-11.2187L11.5504-11.2187C11.426-7.74523 11.5193-3.92964 11.4882-0.342159ZM8.40881-3.98148C8.66802-4.83169 8.68875-6.66691 8.41917-7.52749 8.10812-8.55396 7.6208-9.39381 6.44917-9.39381 4.6658-9.39381 4.32364-7.6208 4.32364-5.70264 4.32364-4.4999 4.51027-3.60822 4.88354-3.02758 5.38122-2.23958 6.22106-1.91816 7.17496-2.30179 7.8178-2.561 8.17033-3.19348 8.40881-3.98148" fill="#4C535D" transform="matrix(1 0 0 1.00211 345.892 492.454)"/><path d="M9.07239-11.426C9.79818-11.426 10.6069-11.3534 11.2083-11.2498L11.2083-8.79244C10.0678-8.9687 8.43991-9.17607 7.48601-8.63691 6.2107-7.92149 5.49527-6.49064 5.49527-4.54138L5.49527 0 2.59211 0C2.48843-3.80522 2.9239-8.1807 2.05295-11.2187L4.8628-11.2187C5.0598-10.5032 5.23606-9.67376 5.33975-8.85465L5.38122-8.85465C5.92038-10.4203 6.94686-11.4468 9.07239-11.426" fill="#4C535D" transform="matrix(1 0 0 1.00211 358.635 492.454)"/><path d="M8.03554-2.00111C7.34086-0.777633 6.4388 0.207369 4.55175 0.207369 2.34327 0.207369 1.09905-0.964265 1.09905-3.17274 1.09905-5.77522 2.86169-6.70838 5.42269-6.76022L7.73486-6.8017C7.77633-8.28438 7.61044-9.53897 6.20033-9.53897 5.13238-9.53897 4.73838-8.9376 4.64506-7.95259L1.60711-8.09775C1.99074-10.3684 3.61859-11.426 6.32475-11.426 9.05165-11.426 10.6588-10.0781 10.6484-7.38233L10.6484-3.3179C10.6588-2.44695 10.7002-1.64858 11.5712-1.65895 11.7889-1.65895 12.0067-1.67969 12.214-1.72116L12.214-0.145158C11.623 0.0103684 11.0942 0.13479 10.3477 0.124421 8.84428 0.124421 8.25328-0.632475 8.09775-2.00111L8.03554-2.00111ZM5.38122-1.82485C7.12312-1.82485 7.80744-3.26606 7.73486-5.19459 6.0137-5.15312 4.13701-5.4538 4.13701-3.40085 4.13701-2.42622 4.47917-1.82485 5.38122-1.82485" fill="#4C535D" transform="matrix(1 0 0 1.00211 371.378 492.454)"/><path d="M7.96296-11.4364C10.524-11.4364 11.4468-9.70486 11.4468-7.12312L11.4468 0 8.5436 0 8.5436-6.41807C8.51249-8.11849 8.29475-9.24865 6.77059-9.24865 5.07017-9.24865 4.39622-7.77633 4.39622-6.0137L4.39622 0 1.48269 0C1.44121-3.72227 1.576-7.63117 1.39974-11.2187L4.17848-11.2187C4.25106-10.5654 4.3029-9.70486 4.31327-8.98944L4.35475-8.98944C5.04943-10.4929 6.0137-11.4364 7.96296-11.4364" fill="#4C535D" transform="matrix(1 0 0 1.00211 384.12 492.454)"/><path d="M4.88354 0.207369C2.32253 0.207369 1.39974-1.5449 1.39974-4.09553L1.39974-11.2187 4.31327-11.2187 4.31327-4.92501C4.35475-3.39048 4.63469-1.97 6.09664-1.97 7.67265-1.97 8.24291-3.52527 8.24291-5.20496L8.24291-11.2187 11.1564-11.2187C11.1979-7.49638 11.0631-3.58748 11.2394 0L8.46065 0C8.38807-0.653212 8.34659-1.51379 8.33623-2.22921L8.28438-2.22921C7.63117-0.788002 6.67728 0.207369 4.88354 0.207369" fill="#4C535D" transform="matrix(1 0 0 1.00211 396.863 492.454)"/><path d="M8.23254-1.97 11.8926-1.97 11.8926 0 1.22348 0 1.22348-1.97 5.31901-1.97 5.31901-13.4168 2.31216-13.4168 2.31216-15.3868 8.23254-15.3868 8.23254-1.97" fill="#4C535D" transform="matrix(1 0 0 1.00211 409.606 492.454)"/><path d="M8.03554-2.00111C7.34086-0.777633 6.4388 0.207369 4.55175 0.207369 2.34327 0.207369 1.09905-0.964265 1.09905-3.17274 1.09905-5.77522 2.86169-6.70838 5.42269-6.76022L7.73486-6.8017C7.77633-8.28438 7.61044-9.53897 6.20033-9.53897 5.13238-9.53897 4.73838-8.9376 4.64506-7.95259L1.60711-8.09775C1.99074-10.3684 3.61859-11.426 6.32475-11.426 9.05165-11.426 10.6588-10.0781 10.6484-7.38233L10.6484-3.3179C10.6588-2.44695 10.7002-1.64858 11.5712-1.65895 11.7889-1.65895 12.0067-1.67969 12.214-1.72116L12.214-0.145158C11.623 0.0103684 11.0942 0.13479 10.3477 0.124421 8.84428 0.124421 8.25328-0.632475 8.09775-2.00111L8.03554-2.00111ZM5.38122-1.82485C7.12312-1.82485 7.80744-3.26606 7.73486-5.19459 6.0137-5.15312 4.13701-5.4538 4.13701-3.40085 4.13701-2.42622 4.47917-1.82485 5.38122-1.82485" fill="#4C535D" transform="matrix(1 0 0 1.00211 422.349 492.454)"/><path d="M7.37196 0.13479C4.77985 0.13479 3.36974-0.891686 3.38011-3.4838L3.40085-9.24865 1.66932-9.24865 1.66932-11.2187 3.54601-11.2187 4.45843-14.1426 6.28328-14.1426 6.28328-11.2187 10.2751-11.2187 10.2751-9.24865 6.28328-9.24865 6.28328-3.75338C6.17959-2.40548 6.74986-1.82485 8.08738-1.84558 9.03091-1.86632 9.91223-1.95964 10.7313-2.12553L10.7313-0.197C9.67376-0.0103684 8.63691 0.13479 7.37196 0.13479" fill="#4C535D" transform="matrix(1 0 0 1.00211 435.092 492.454)"/><path d="M11.5401-2.84095C10.7624-0.99537 9.1657 0.207369 6.49064 0.207369 2.84095 0.207369 1.03684-1.95964 1.03684-5.66117 1.03684-9.37307 2.95501-11.426 6.53212-11.426 10.244-11.426 11.6749-8.82354 11.706-5.04943L4.09553-5.04943C4.14738-3.18311 4.80059-1.7419 6.6358-1.7419 7.69338-1.7419 8.56433-2.20848 8.79244-3.07943ZM8.88575-6.87428C8.82354-8.70949 7.55859-10.0574 5.6197-9.43528 4.64506-9.12423 4.15774-8.1807 4.11627-6.87428L8.88575-6.87428" fill="#4C535D" transform="matrix(1 0 0 1.00211 447.834 492.454)"/><path d="M-937.503 3142.19C-937.503 3139.55-935.364 3137.41-932.726 3137.41L-814.874 3137.41C-812.235 3137.41-810.096 3139.55-810.096 3142.19L-810.096 3197.75C-810.096 3200.39-812.235 3202.53-814.874 3202.53L-932.726 3202.53C-935.364 3202.53-937.503 3200.39-937.503 3197.75Z" stroke="#3A414A" stroke-width="2.38889" fill="#FFFFFF" transform="matrix(1 0 0 1.00211 1277.04 -2605.57)"/><path d="M6.38696-13.987C9.66339-13.9559 11.8408-12.7636 11.8408-9.57007 11.8408-6.44917 9.7567-4.98722 6.51138-4.93538L4.4688-4.93538 4.4688 0 1.41011 0 1.41011-13.987 6.38696-13.987ZM6.12775-7.28901C7.82817-7.27865 8.76133-7.93186 8.76133-9.51823 8.76133-11.1461 7.73486-11.5919 6.0448-11.6127L4.4688-11.6127 4.4688-7.28901 6.12775-7.28901" fill="#4C535D" transform="matrix(1 0 0 1.00211 390.492 576.641)"/><path d="M6.38696-13.987C9.66339-13.9559 11.8408-12.7636 11.8408-9.57007 11.8408-6.44917 9.7567-4.98722 6.51138-4.93538L4.4688-4.93538 4.4688 0 1.41011 0 1.41011-13.987 6.38696-13.987ZM6.12775-7.28901C7.82817-7.27865 8.76133-7.93186 8.76133-9.51823 8.76133-11.1461 7.73486-11.5919 6.0448-11.6127L4.4688-11.6127 4.4688-7.28901 6.12775-7.28901" fill="#4C535D" transform="matrix(1 0 0 1.00211 403.235 576.641)"/><path d="M-525.556 3037.79C-525.556 3035.15-523.417 3033.01-520.778 3033.01L-375.732 3033.01C-373.094 3033.01-370.955 3035.15-370.955 3037.79L-370.955 3111.05C-370.955 3113.69-373.094 3115.83-375.732 3115.83L-520.778 3115.83C-523.417 3115.83-525.556 3113.69-525.556 3111.05Z" stroke="#4C535D" stroke-width="2.38889" fill="#FFFFFF" transform="matrix(1 0 0 1.00211 1277.04 -2605.57)"/><path d="M6.38696-13.987C9.66339-13.9559 11.8408-12.7636 11.8408-9.57007 11.8408-6.44917 9.7567-4.98722 6.51138-4.93538L4.4688-4.93538 4.4688 0 1.41011 0 1.41011-13.987 6.38696-13.987ZM6.12775-7.28901C7.82817-7.27865 8.76133-7.93186 8.76133-9.51823 8.76133-11.1461 7.73486-11.5919 6.0448-11.6127L4.4688-11.6127 4.4688-7.28901 6.12775-7.28901" fill="#4C535D" transform="matrix(1 0 0 1.00211 765.406 470.421)"/><path d="M1.42048 0 1.42048-13.987 11.4571-13.987 11.4571-11.623 4.47917-11.623 4.47917-8.26365 10.8247-8.26365 10.8247-5.89964 4.47917-5.89964 4.47917-2.364 11.8822-2.364 11.8822 0 1.42048 0" fill="#4C535D" transform="matrix(1 0 0 1.00211 778.149 470.421)"/><path d="M7.90075-11.623 7.90075 0 4.84206 0 4.84206-11.623 0.632475-11.623 0.632475-13.987 12.1103-13.987 12.1103-11.623 7.90075-11.623" fill="#4C535D" transform="matrix(1 0 0 1.00211 790.892 470.421)"/><path d="M4.44806-15.3868C4.45843-13.4168 4.43769-11.3638 4.44806-9.45602 5.00796-10.6588 6.05517-11.4364 7.73486-11.4364 10.8454-11.4364 11.7371-8.7717 11.7371-5.59896 11.7371-3.10016 10.9802-1.1509 9.39381-0.228106 8.88575 0.0622106 8.29475 0.207369 7.64154 0.207369 5.96185 0.207369 5.03906-0.632475 4.4688-1.82485L4.42732-1.82485C4.41696-1.21311 4.37548-0.508054 4.2718 0L1.45158 0C1.49306-0.694686 1.5449-1.58637 1.53453-2.44695L1.53453-15.3868 4.44806-15.3868ZM5.13238-8.66802C4.16811-7.48601 4.17848-3.83632 5.14275-2.60248 5.50564-2.1359 5.94112-1.78337 6.61507-1.78337 7.27865-1.78337 7.77633-2.10479 8.1496-2.73727 8.86502-3.92964 8.85465-7.29938 8.12886-8.55396 7.72449-9.25902 6.77059-9.70486 5.83743-9.27975 5.57822-9.1657 5.36048-8.94796 5.13238-8.66802" fill="#4C535D" transform="matrix(1 0 0 1.00211 816.378 470.421)"/><path d="M6.38696-11.426C10.13-11.426 11.7889-9.3316 11.7889-5.6197 11.7889-1.94927 10.0159 0.207369 6.32475 0.207369 2.68543 0.207369 0.953897-1.99074 0.953897-5.6197 0.953897-9.25902 2.70616-11.426 6.38696-11.426ZM6.29364-1.78337C8.36733-1.80411 8.7406-3.49416 8.7406-5.6197 8.7406-7.68301 8.46065-9.42491 6.42843-9.42491 4.40659-9.42491 4.01259-7.91112 4.01259-5.6197 4.01259-4.28217 4.19922-3.30753 4.58285-2.69579 4.96648-2.08406 5.53675-1.78337 6.29364-1.78337" fill="#4C535D" transform="matrix(1 0 0 1.00211 829.12 470.421)"/><path d="M7.37196 0.13479C4.77985 0.13479 3.36974-0.891686 3.38011-3.4838L3.40085-9.24865 1.66932-9.24865 1.66932-11.2187 3.54601-11.2187 4.45843-14.1426 6.28328-14.1426 6.28328-11.2187 10.2751-11.2187 10.2751-9.24865 6.28328-9.24865 6.28328-3.75338C6.17959-2.40548 6.74986-1.82485 8.08738-1.84558 9.03091-1.86632 9.91223-1.95964 10.7313-2.12553L10.7313-0.197C9.67376-0.0103684 8.63691 0.13479 7.37196 0.13479" fill="#4C535D" transform="matrix(1 0 0 1.00211 841.863 470.421)"/><path d="M7.37196 0.13479C4.77985 0.13479 3.36974-0.891686 3.38011-3.4838L3.40085-9.24865 1.66932-9.24865 1.66932-11.2187 3.54601-11.2187 4.45843-14.1426 6.28328-14.1426 6.28328-11.2187 10.2751-11.2187 10.2751-9.24865 6.28328-9.24865 6.28328-3.75338C6.17959-2.40548 6.74986-1.82485 8.08738-1.84558 9.03091-1.86632 9.91223-1.95964 10.7313-2.12553L10.7313-0.197C9.67376-0.0103684 8.63691 0.13479 7.37196 0.13479" fill="#4C535D" transform="matrix(1 0 0 1.00211 854.606 470.421)"/><path d="M8.23254-1.97 11.8926-1.97 11.8926 0 1.22348 0 1.22348-1.97 5.31901-1.97 5.31901-13.4168 2.31216-13.4168 2.31216-15.3868 8.23254-15.3868 8.23254-1.97" fill="#4C535D" transform="matrix(1 0 0 1.00211 867.349 470.421)"/><path d="M11.5401-2.84095C10.7624-0.99537 9.1657 0.207369 6.49064 0.207369 2.84095 0.207369 1.03684-1.95964 1.03684-5.66117 1.03684-9.37307 2.95501-11.426 6.53212-11.426 10.244-11.426 11.6749-8.82354 11.706-5.04943L4.09553-5.04943C4.14738-3.18311 4.80059-1.7419 6.6358-1.7419 7.69338-1.7419 8.56433-2.20848 8.79244-3.07943ZM8.88575-6.87428C8.82354-8.70949 7.55859-10.0574 5.6197-9.43528 4.64506-9.12423 4.15774-8.1807 4.11627-6.87428L8.88575-6.87428" fill="#4C535D" transform="matrix(1 0 0 1.00211 880.092 470.421)"/><path d="M4.42732-1.773C4.45843 0.248843 4.44806 2.34327 4.44806 4.40659L1.53453 4.40659 1.53453-8.7717C1.5449-9.63228 1.49306-10.5136 1.45158-11.2187L4.2718-11.2187C4.37548-10.7106 4.41696-9.99518 4.42732-9.39381L4.4688-9.39381C5.08054-10.5758 6.03443-11.4364 7.74523-11.4364 10.7624-11.4364 11.7371-8.75096 11.7371-5.63006 11.7371-3.11053 11.0631-1.14053 9.45602-0.228106 8.9376 0.0622106 8.32586 0.207369 7.63117 0.207369 5.95149 0.186632 5.00796-0.60137 4.42732-1.773ZM5.14275-8.62654C4.19922-7.45491 4.18885-3.82595 5.13238-2.55064 5.60933-1.90779 6.6358-1.50342 7.46528-1.99074 8.46065-2.58174 8.68875-3.97111 8.69912-5.63006 8.69912-6.90538 8.51249-7.85928 8.1496-8.49175 7.67265-9.34197 6.82243-9.68412 5.86854-9.25902 5.60933-9.1346 5.37085-8.91686 5.14275-8.62654" fill="#4C535D" transform="matrix(1 0 0 1.00211 765.406 491.7)"/><path d="M9.07239-11.426C9.79818-11.426 10.6069-11.3534 11.2083-11.2498L11.2083-8.79244C10.0678-8.9687 8.43991-9.17607 7.48601-8.63691 6.2107-7.92149 5.49527-6.49064 5.49527-4.54138L5.49527 0 2.59211 0C2.48843-3.80522 2.9239-8.1807 2.05295-11.2187L4.8628-11.2187C5.0598-10.5032 5.23606-9.67376 5.33975-8.85465L5.38122-8.85465C5.92038-10.4203 6.94686-11.4468 9.07239-11.426" fill="#4C535D" transform="matrix(1 0 0 1.00211 778.149 491.7)"/><path d="M6.38696-11.426C10.13-11.426 11.7889-9.3316 11.7889-5.6197 11.7889-1.94927 10.0159 0.207369 6.32475 0.207369 2.68543 0.207369 0.953897-1.99074 0.953897-5.6197 0.953897-9.25902 2.70616-11.426 6.38696-11.426ZM6.29364-1.78337C8.36733-1.80411 8.7406-3.49416 8.7406-5.6197 8.7406-7.68301 8.46065-9.42491 6.42843-9.42491 4.40659-9.42491 4.01259-7.91112 4.01259-5.6197 4.01259-4.28217 4.19922-3.30753 4.58285-2.69579 4.96648-2.08406 5.53675-1.78337 6.29364-1.78337" fill="#4C535D" transform="matrix(1 0 0 1.00211 790.892 491.7)"/><path d="M8.31549-9.42491C8.28438-11.3845 8.29475-13.396 8.29475-15.3868L11.2083-15.3868 11.2083-2.44695C11.1979-1.58637 11.2498-0.705054 11.2912 0L8.47102 0C8.3777-0.518422 8.32586-1.21311 8.31549-1.82485L8.27402-1.82485C7.6208-0.508054 6.74986 0.207369 4.99759 0.207369 1.98037 0.207369 1.00574-2.46769 1.00574-5.58859 1.00574-8.10812 1.69006-10.0678 3.29716-10.9698 3.81559-11.2601 4.41696-11.4053 5.11164-11.4053 6.79133-11.3845 7.73486-10.5965 8.31549-9.42491ZM7.5897-2.60248C8.53323-3.77411 8.55396-7.3927 7.61044-8.65765 7.13349-9.29012 6.10701-9.69449 5.28791-9.20718 4.29253-8.62654 4.05406-7.23717 4.04369-5.58859 4.04369-4.31327 4.21996-3.36974 4.58285-2.73727 5.0598-1.88706 5.93075-1.5449 6.88464-1.97 7.14386-2.09443 7.36159-2.31216 7.5897-2.60248" fill="#4C535D" transform="matrix(1 0 0 1.00211 803.635 491.7)"/><path d="M4.88354 0.207369C2.32253 0.207369 1.39974-1.5449 1.39974-4.09553L1.39974-11.2187 4.31327-11.2187 4.31327-4.92501C4.35475-3.39048 4.63469-1.97 6.09664-1.97 7.67265-1.97 8.24291-3.52527 8.24291-5.20496L8.24291-11.2187 11.1564-11.2187C11.1979-7.49638 11.0631-3.58748 11.2394 0L8.46065 0C8.38807-0.653212 8.34659-1.51379 8.33623-2.22921L8.28438-2.22921C7.63117-0.788002 6.67728 0.207369 4.88354 0.207369" fill="#4C535D" transform="matrix(1 0 0 1.00211 816.378 491.7)"/><path d="M11.4986-3.73264C11.0528-1.26495 9.35233 0.207369 6.46991 0.207369 2.87206 0.207369 1.14053-1.95964 1.14053-5.54712 1.14053-9.20718 2.88243-11.426 6.51138-11.426 9.31086-11.426 10.918-10.0159 11.4157-7.68301L8.48139-7.53786C8.31549-8.63691 7.70375-9.43528 6.44917-9.42491 5.67154-9.42491 5.10127-9.10349 4.73838-8.46065 4.37548-7.8178 4.19922-6.88464 4.19922-5.66117 4.19922-3.07943 4.96648-1.78337 6.49064-1.78337 7.73486-1.78337 8.43991-2.63358 8.5747-3.86743" fill="#4C535D" transform="matrix(1 0 0 1.00211 829.12 491.7)"/><path d="M7.37196 0.13479C4.77985 0.13479 3.36974-0.891686 3.38011-3.4838L3.40085-9.24865 1.66932-9.24865 1.66932-11.2187 3.54601-11.2187 4.45843-14.1426 6.28328-14.1426 6.28328-11.2187 10.2751-11.2187 10.2751-9.24865 6.28328-9.24865 6.28328-3.75338C6.17959-2.40548 6.74986-1.82485 8.08738-1.84558 9.03091-1.86632 9.91223-1.95964 10.7313-2.12553L10.7313-0.197C9.67376-0.0103684 8.63691 0.13479 7.37196 0.13479" fill="#4C535D" transform="matrix(1 0 0 1.00211 841.863 491.7)"/><path d="M8.23254-1.97 11.8926-1.97 11.8926 0 1.22348 0 1.22348-1.97 5.31901-1.97 5.31901-9.24865 2.31216-9.24865 2.31216-11.2187 8.23254-11.2187 8.23254-1.97ZM5.31901-13.2405 5.31901-15.3868 8.23254-15.3868 8.23254-13.2405 5.31901-13.2405" fill="#4C535D" transform="matrix(1 0 0 1.00211 854.606 491.7)"/><path d="M6.38696-11.426C10.13-11.426 11.7889-9.3316 11.7889-5.6197 11.7889-1.94927 10.0159 0.207369 6.32475 0.207369 2.68543 0.207369 0.953897-1.99074 0.953897-5.6197 0.953897-9.25902 2.70616-11.426 6.38696-11.426ZM6.29364-1.78337C8.36733-1.80411 8.7406-3.49416 8.7406-5.6197 8.7406-7.68301 8.46065-9.42491 6.42843-9.42491 4.40659-9.42491 4.01259-7.91112 4.01259-5.6197 4.01259-4.28217 4.19922-3.30753 4.58285-2.69579 4.96648-2.08406 5.53675-1.78337 6.29364-1.78337" fill="#4C535D" transform="matrix(1 0 0 1.00211 867.349 491.7)"/><path d="M7.96296-11.4364C10.524-11.4364 11.4468-9.70486 11.4468-7.12312L11.4468 0 8.5436 0 8.5436-6.41807C8.51249-8.11849 8.29475-9.24865 6.77059-9.24865 5.07017-9.24865 4.39622-7.77633 4.39622-6.0137L4.39622 0 1.48269 0C1.44121-3.72227 1.576-7.63117 1.39974-11.2187L4.17848-11.2187C4.25106-10.5654 4.3029-9.70486 4.31327-8.98944L4.35475-8.98944C5.04943-10.4929 6.0137-11.4364 7.96296-11.4364" fill="#4C535D" transform="matrix(1 0 0 1.00211 880.092 491.7)"/><path d="M-368.606 3074.42-334.906 3074.42" stroke="#3A414A" stroke-width="2.38889" fill="none" transform="matrix(1 0 0 1.00211 1277.04 -2605.57)"/><path d="M-368.566 3075.61-369.792 3075.61-369.792 3073.23-368.558 3073.23Z" stroke="#3A414A" stroke-width="0.0398148" fill="#3A414A" transform="matrix(1 0 0 1.00211 1277.04 -2605.57)"/><path d="M-322.341 3074.42-333.712 3078.1-333.712 3070.72Z" stroke="#3A414A" stroke-width="2.38889" fill="#3A414A" transform="matrix(1 0 0 1.00211 1277.04 -2605.57)"/><path d="M8.11042-2.4577 8.11042 0 5.80018 0 5.80018-2.4577 0.24577-2.4577 0.24577-4.32556 5.40695-12.1902 8.11042-12.1902 8.11042-4.27641 9.73251-4.27641 9.73251-2.4577 8.11042-2.4577ZM5.80018-4.27641 5.89849-9.97828 2.26109-4.27641 5.80018-4.27641" fill="#3A414A" transform="matrix(1 0 0 1.00211 552.481 366.632)"/><path d="M9.58505-0.294925C10.1257 4.03064 3.68656 4.91541 1.52378 2.26109 1.32716 1.96616 1.22885 1.62208 1.13054 1.22885L3.53909 0.933928C3.68656 1.72039 4.32556 2.11363 5.21033 2.16278 7.1765 2.16278 7.27481 0.344079 7.1765-1.72039 6.6358-0.639003 5.70187 0 4.1781 0 1.57293 0 0.737311-2.11363 0.737311-4.76795 0.737311-7.52058 1.62208-9.48674 4.32556-9.53589 5.80018-9.53589 6.58665-8.84774 7.22565-7.86465L7.32396-9.33928 9.6342-9.33928ZM5.16118-1.72039C6.73411-1.72039 7.1765-3.04755 7.1765-4.8171 7.1765-6.53749 6.73411-7.86465 5.21033-7.86465 3.6374-7.86465 3.29332-6.43919 3.24417-4.76795 3.24417-2.9984 3.68656-1.72039 5.16118-1.72039" fill="#3A414A" transform="matrix(1 0 0 1.00211 567.227 366.632)"/><path d="M9.14266 0 9.14266-5.21033 3.73571-5.21033 3.73571 0 1.1797 0 1.1797-12.1902 3.73571-12.1902 3.73571-7.32396 9.14266-7.32396 9.14266-12.1902 11.6004-12.1902 11.6004 0 9.14266 0" fill="#3A414A" transform="matrix(1 0 0 1.00211 582.908 366.632)"/><path d="M1.1797-12.1902C7.07819-12.5343 12.1411-11.9444 12.0428-6.19342 11.9936-2.26109 9.87997 0 6.09511 0L1.1797 0 1.1797-12.1902ZM3.73571-1.96616C7.37311-1.62208 9.48674-2.85094 9.48674-6.19342 9.48674-9.48674 7.27481-10.519 3.73571-10.2241L3.73571-1.96616" fill="#3A414A" transform="matrix(1 0 0 1.00211 595.638 366.632)"/><path d="M1.1797-12.1902C5.75103-12.1411 11.3054-12.9767 11.2071-8.30704 11.158-4.62048 7.8155-3.98148 3.73571-4.27641L3.73571 0 1.1797 0 1.1797-12.1902ZM3.73571-6.24257C6.04595-6.24257 8.65112-5.89849 8.65112-8.25789 8.65112-10.5681 5.9968-10.1749 3.73571-10.1749L3.73571-6.24257" fill="#3A414A" transform="matrix(1 0 0 1.00211 608.369 366.632)"/><path d="M1.1797 0 1.1797-12.1902 10.7647-12.1902 10.7647-10.2241 3.73571-10.2241 3.73571-7.12734 10.2241-7.12734 10.2241-5.16118 3.73571-5.16118 3.73571-1.96616 11.1088-1.96616 11.1088 0 1.1797 0" fill="#3A414A" transform="matrix(1 0 0 1.00211 620.166 366.632)"/><path d="M5.65272-7.8155C8.01212-7.8155 9.19182-6.34088 9.19182-3.98148 9.19182-1.32716 7.71719 0.196616 5.11203 0.196616 1.96616 0.196616 0.639003-2.26109 0.639003-5.80018 0.639003-10.6173 3.48994-13.8123 7.56973-11.6987 8.30704-11.3054 8.60197-10.519 8.89689-9.53589L6.58665-9.24097C6.34088-10.7647 4.22725-10.7647 3.58825-9.43759 3.24417-8.74943 3.04755-7.8155 3.04755-6.48834 3.48994-7.32396 4.42387-7.8155 5.65272-7.8155ZM5.01372-1.72039C6.19342-1.72039 6.78326-2.70347 6.78326-3.93233 6.78326-5.16118 6.24257-6.04595 4.96456-6.04595 3.83402-6.04595 3.19502-5.3578 3.19502-4.1781 3.19502-2.85094 3.73571-1.72039 5.01372-1.72039" fill="#3A414A" transform="matrix(1 0 0 1.00211 554.914 462.39)"/><path d="M4.96456-12.3377C8.30704-12.3377 9.09351-9.68336 9.09351-6.09511 9.09351-2.4577 8.15958 0.196616 4.86626 0.196616 1.57293 0.196616 0.737311-2.55601 0.688157-6.09511 0.639003-9.78166 1.52378-12.3377 4.96456-12.3377ZM4.91541-1.72039C6.73411-1.96616 6.68496-3.98148 6.68496-6.09511 6.68496-8.20873 6.88157-10.4698 4.91541-10.4698 2.9984-10.4698 3.14586-8.25789 3.14586-6.09511 3.14586-3.98148 2.9984-1.91701 4.91541-1.72039" fill="#3A414A" transform="matrix(1 0 0 1.00211 564.745 462.39)"/><path d="M9.58505-0.294925C10.1257 4.03064 3.68656 4.91541 1.52378 2.26109 1.32716 1.96616 1.22885 1.62208 1.13054 1.22885L3.53909 0.933928C3.68656 1.72039 4.32556 2.11363 5.21033 2.16278 7.1765 2.16278 7.27481 0.344079 7.1765-1.72039 6.6358-0.639003 5.70187 0 4.1781 0 1.57293 0 0.737311-2.11363 0.737311-4.76795 0.737311-7.52058 1.62208-9.48674 4.32556-9.53589 5.80018-9.53589 6.58665-8.84774 7.22565-7.86465L7.32396-9.33928 9.6342-9.33928ZM5.16118-1.72039C6.73411-1.72039 7.1765-3.04755 7.1765-4.8171 7.1765-6.53749 6.73411-7.86465 5.21033-7.86465 3.6374-7.86465 3.29332-6.43919 3.24417-4.76795 3.24417-2.9984 3.68656-1.72039 5.16118-1.72039" fill="#3A414A" transform="matrix(1 0 0 1.00211 579.491 462.39)"/><path d="M1.1797-12.1902C5.75103-12.1411 11.3054-12.9767 11.2071-8.30704 11.158-4.62048 7.8155-3.98148 3.73571-4.27641L3.73571 0 1.1797 0 1.1797-12.1902ZM3.73571-6.24257C6.04595-6.24257 8.65112-5.89849 8.65112-8.25789 8.65112-10.5681 5.9968-10.1749 3.73571-10.1749L3.73571-6.24257" fill="#3A414A" transform="matrix(1 0 0 1.00211 595.171 462.39)"/><path d="M1.1797 0 1.1797-12.1902 10.7647-12.1902 10.7647-10.2241 3.73571-10.2241 3.73571-7.12734 10.2241-7.12734 10.2241-5.16118 3.73571-5.16118 3.73571-1.96616 11.1088-1.96616 11.1088 0 1.1797 0" fill="#3A414A" transform="matrix(1 0 0 1.00211 606.968 462.39)"/><path d="M6.68496-10.2241 6.68496 0 4.12894 0 4.12894-10.2241 0.196616-10.2241 0.196616-12.1902 10.6173-12.1902 10.6173-10.2241 6.68496-10.2241" fill="#3A414A" transform="matrix(1 0 0 1.00211 618.765 462.39)"/><path d="M1.13054 0 1.13054-1.8187 4.12894-1.8187 4.12894-10.1257 1.22885-8.30704 1.22885-10.1749 4.27641-12.1902 6.53749-12.1902 6.53749-1.8187 9.33928-1.8187 9.33928 0 1.13054 0" fill="#3A414A" transform="matrix(1 0 0 1.00211 565.212 558.147)"/><path d="M9.58505-0.294925C10.1257 4.03064 3.68656 4.91541 1.52378 2.26109 1.32716 1.96616 1.22885 1.62208 1.13054 1.22885L3.53909 0.933928C3.68656 1.72039 4.32556 2.11363 5.21033 2.16278 7.1765 2.16278 7.27481 0.344079 7.1765-1.72039 6.6358-0.639003 5.70187 0 4.1781 0 1.57293 0 0.737311-2.11363 0.737311-4.76795 0.737311-7.52058 1.62208-9.48674 4.32556-9.53589 5.80018-9.53589 6.58665-8.84774 7.22565-7.86465L7.32396-9.33928 9.6342-9.33928ZM5.16118-1.72039C6.73411-1.72039 7.1765-3.04755 7.1765-4.8171 7.1765-6.53749 6.73411-7.86465 5.21033-7.86465 3.6374-7.86465 3.29332-6.43919 3.24417-4.76795 3.24417-2.9984 3.68656-1.72039 5.16118-1.72039" fill="#3A414A" transform="matrix(1 0 0 1.00211 579.958 558.147)"/><path d="M1.1797-12.1902C5.75103-12.1411 11.3054-12.9767 11.2071-8.30704 11.158-4.62048 7.8155-3.98148 3.73571-4.27641L3.73571 0 1.1797 0 1.1797-12.1902ZM3.73571-6.24257C6.04595-6.24257 8.65112-5.89849 8.65112-8.25789 8.65112-10.5681 5.9968-10.1749 3.73571-10.1749L3.73571-6.24257" fill="#3A414A" transform="matrix(1 0 0 1.00211 595.638 558.147)"/><path d="M1.1797-12.1902C5.75103-12.1411 11.3054-12.9767 11.2071-8.30704 11.158-4.62048 7.8155-3.98148 3.73571-4.27641L3.73571 0 1.1797 0 1.1797-12.1902ZM3.73571-6.24257C6.04595-6.24257 8.65112-5.89849 8.65112-8.25789 8.65112-10.5681 5.9968-10.1749 3.73571-10.1749L3.73571-6.24257" fill="#3A414A" transform="matrix(1 0 0 1.00211 607.435 558.147)"/><path d="M1.13054 0 1.13054-1.8187 4.12894-1.8187 4.12894-10.1257 1.22885-8.30704 1.22885-10.1749 4.27641-12.1902 6.53749-12.1902 6.53749-1.8187 9.33928-1.8187 9.33928 0 1.13054 0" fill="#4C535D" transform="matrix(1 0 0 1.00211 980.761 467.31)"/><path d="M1.22885-11.0105 1.22885-12.8292 3.68656-12.8292 3.68656-11.0105 1.22885-11.0105ZM1.22885 0 1.22885-9.33928 3.68656-9.33928 3.68656 0 1.22885 0" fill="#4C535D" transform="matrix(1 0 0 1.00211 995.507 467.31)"/><path d="M5.65272-0.147462C3.88317 0.540695 1.37631 0.196616 1.37631-2.21193L1.37631-7.71719 0.196616-7.71719 0.196616-9.33928 1.52378-9.33928 2.26109-11.5512 3.78487-11.5512 3.78487-9.33928 5.55441-9.33928 5.55441-7.71719 3.78487-7.71719 3.78487-2.85094C3.73571-1.72039 4.57133-1.32716 5.65272-1.62208L5.65272-0.147462" fill="#4C535D" transform="matrix(1 0 0 1.00211 1000.42 467.31)"/><path d="M9.09351-2.3594C8.4545-0.884774 7.27481 0.24577 5.06287 0.196616 2.11363 0.0983082 0.688157-1.62208 0.688157-4.71879 0.688157-7.8155 2.16278-9.53589 5.11203-9.53589 8.15958-9.53589 9.19182-7.32396 9.24097-4.22725L3.24417-4.22725C3.24417-2.70347 3.6374-1.52378 5.16118-1.47462 6.04595-1.47462 6.6358-1.8187 6.83242-2.55601ZM6.88157-5.75103C7.12734-8.01212 4.07979-8.84774 3.44079-6.78326 3.34248-6.48834 3.24417-6.14426 3.24417-5.75103L6.88157-5.75103" fill="#4C535D" transform="matrix(1 0 0 1.00211 1006.27 467.31)"/><path d="M10.8139-7.71719C8.20873-7.27481 9.43759-2.80178 9.14266 0L6.73411 0 6.73411-5.25949C6.78326-6.58665 6.48834-7.66804 5.30864-7.71719 2.70347-7.22565 3.98148-2.80178 3.68656 0L1.22885 0 1.1797-9.33928 3.48994-9.33928C3.58825-8.74943 3.44079-7.96296 3.6374-7.47142 4.12894-10.0766 8.60197-10.2241 8.94604-7.47142 9.58505-8.55281 10.1257-9.58505 11.8461-9.53589 15.8768-9.48674 14.353-3.83402 14.6479 0L12.2394 0 12.2394-5.25949C12.1902-6.48834 11.9936-7.61888 10.8139-7.71719" fill="#4C535D" transform="matrix(1 0 0 1.00211 1016.1 467.31)"/><path d="M3.29332-4.57133C3.29332-0.933928 4.37471 1.47462 5.89849 3.68656L3.44079 3.68656C1.96616 1.47462 0.884774-0.884774 0.884774-4.57133 0.884774-8.25789 1.96616-10.6173 3.44079-12.8292L5.89849-12.8292C4.32556-10.6664 3.29332-8.20873 3.29332-4.57133" fill="#4C535D" transform="matrix(1 0 0 1.00211 982.776 488.59)"/><path d="M5.65272-7.8155C8.01212-7.8155 9.19182-6.34088 9.19182-3.98148 9.19182-1.32716 7.71719 0.196616 5.11203 0.196616 1.96616 0.196616 0.639003-2.26109 0.639003-5.80018 0.639003-10.6173 3.48994-13.8123 7.56973-11.6987 8.30704-11.3054 8.60197-10.519 8.89689-9.53589L6.58665-9.24097C6.34088-10.7647 4.22725-10.7647 3.58825-9.43759 3.24417-8.74943 3.04755-7.8155 3.04755-6.48834 3.48994-7.32396 4.42387-7.8155 5.65272-7.8155ZM5.01372-1.72039C6.19342-1.72039 6.78326-2.70347 6.78326-3.93233 6.78326-5.16118 6.24257-6.04595 4.96456-6.04595 3.83402-6.04595 3.19502-5.3578 3.19502-4.1781 3.19502-2.85094 3.73571-1.72039 5.01372-1.72039" fill="#4C535D" transform="matrix(1 0 0 1.00211 988.625 488.59)"/><path d="M6.83242-3.98148C6.83242-6.24257 4.12894-6.68496 3.24417-5.30864L0.884774-5.30864 1.32716-12.1902 8.65112-12.1902 8.65112-10.3715 3.53909-10.3715 3.34248-7.27481C5.50526-9.14266 9.87997-7.47142 9.33928-4.03064 9.87997 1.03224 1.03224 1.72039 0.540695-3.04755L2.94925-3.24417C3.19502-2.3594 3.68656-1.76955 4.86626-1.76955 6.14426-1.76955 6.83242-2.65432 6.83242-3.98148" fill="#4C535D" transform="matrix(1 0 0 1.00211 998.456 488.59)"/><path d="M9.58505-0.294925C10.1257 4.03064 3.68656 4.91541 1.52378 2.26109 1.32716 1.96616 1.22885 1.62208 1.13054 1.22885L3.53909 0.933928C3.68656 1.72039 4.32556 2.11363 5.21033 2.16278 7.1765 2.16278 7.27481 0.344079 7.1765-1.72039 6.6358-0.639003 5.70187 0 4.1781 0 1.57293 0 0.737311-2.11363 0.737311-4.76795 0.737311-7.52058 1.62208-9.48674 4.32556-9.53589 5.80018-9.53589 6.58665-8.84774 7.22565-7.86465L7.32396-9.33928 9.6342-9.33928ZM5.16118-1.72039C6.73411-1.72039 7.1765-3.04755 7.1765-4.8171 7.1765-6.53749 6.73411-7.86465 5.21033-7.86465 3.6374-7.86465 3.29332-6.43919 3.24417-4.76795 3.24417-2.9984 3.68656-1.72039 5.16118-1.72039" fill="#4C535D" transform="matrix(1 0 0 1.00211 1013.2 488.59)"/><path d="M5.01372-4.57133C5.01372-0.933928 3.93233 1.47462 2.4577 3.68656L0 3.68656C1.47462 1.42547 2.65432-0.884774 2.60517-4.57133 2.60517-8.20873 1.52378-10.6173 0-12.8292L2.4577-12.8292C3.93233-10.6173 5.01372-8.20873 5.01372-4.57133" fill="#4C535D" transform="matrix(1 0 0 1.00211 1023.97 488.59)"/><path d="M-683.62 3169.26-610.536 3169.26C-607.898 3169.26-605.758 3167.12-605.758 3164.48L-605.758 3101.49C-605.758 3098.86-603.619 3096.72-600.981 3096.72L-543.122 3096.72M-683.589 3169.26-684.815 3169.26" stroke="#1071E5" stroke-width="2.38889" fill="none" transform="matrix(1 0 0 1.00211 1277.04 -2605.57)"/><path d="M-530.572 3096.72-541.927 3100.4-541.927 3093.02Z" stroke="#1071E5" stroke-width="2.38889" fill="#1071E5" transform="matrix(1 0 0 1.00211 1277.04 -2605.57)"/><path d="M-683.62 2978.15-610.552 2978.15C-607.914 2978.15-605.774 2980.29-605.774 2982.93L-605.774 3048.76C-605.774 3051.39-603.635 3053.53-600.997 3053.53L-543.154 3053.53M-683.589 2978.15-684.815 2978.15" stroke="#1071E5" stroke-width="2.38889" fill="none" transform="matrix(1 0 0 1.00211 1277.04 -2605.57)"/><path d="M-530.604 3053.53-541.959 3057.22-541.959 3049.84Z" stroke="#1071E5" stroke-width="2.38889" fill="#1071E5" transform="matrix(1 0 0 1.00211 1277.04 -2605.57)"/><path d="M-684.361 3074.42-543.138 3074.42" stroke="#1071E5" stroke-width="2.38889" fill="none" transform="matrix(1 0 0 1.00211 1277.04 -2605.57)"/><path d="M-683.62 3074.9-686.009 3074.9-686.009 3073.67-683.62 3073.67Z" stroke="#1071E5" stroke-width="0.0398148" fill="#1071E5" transform="matrix(1 0 0 1.00211 1277.04 -2605.57)"/><path d="M-530.588 3074.42-541.943 3078.1-541.943 3070.72Z" stroke="#1071E5" stroke-width="2.38889" fill="#1071E5" transform="matrix(1 0 0 1.00211 1277.04 -2605.57)"/><path d="M-807.739 2978.15-762.812 2978.15" stroke="#008573" stroke-width="2.38889" fill="none" transform="matrix(1 0 0 1.00211 1277.04 -2605.57)"/><path d="M-807.707 2979.34-808.934 2979.34-808.934 2976.95-807.707 2976.95Z" stroke="#008573" stroke-width="0.0398148" fill="#008573" transform="matrix(1 0 0 1.00211 1277.04 -2605.57)"/><path d="M-750.27 2978.15-761.618 2981.84-761.618 2974.45Z" stroke="#008573" stroke-width="2.38889" fill="#008573" transform="matrix(1 0 0 1.00211 1277.04 -2605.57)"/><path d="M-807.739 3074.42-762.812 3074.42" stroke="#008573" stroke-width="2.38889" fill="none" transform="matrix(1 0 0 1.00211 1277.04 -2605.57)"/><path d="M-807.707 3075.61-808.934 3075.61-808.934 3073.23-807.707 3073.23Z" stroke="#008573" stroke-width="0.0398148" fill="#008573" transform="matrix(1 0 0 1.00211 1277.04 -2605.57)"/><path d="M-750.27 3074.42-761.618 3078.1-761.618 3070.72Z" stroke="#008573" stroke-width="2.38889" fill="#008573" transform="matrix(1 0 0 1.00211 1277.04 -2605.57)"/><path d="M-807.739 3169.98-762.812 3169.98" stroke="#008573" stroke-width="2.38889" fill="none" transform="matrix(1 0 0 1.00211 1277.04 -2605.57)"/><path d="M-807.707 3171.17-808.934 3171.17-808.934 3168.78-807.707 3168.78Z" stroke="#008573" stroke-width="0.0398148" fill="#008573" transform="matrix(1 0 0 1.00211 1277.04 -2605.57)"/><path d="M-750.27 3169.98-761.618 3173.65-761.618 3166.27Z" stroke="#008573" stroke-width="2.38889" fill="#008573" transform="matrix(1 0 0 1.00211 1277.04 -2605.57)"/><path d="M1.13054 0 1.13054-1.8187 4.12894-1.8187 4.12894-10.1257 1.22885-8.30704 1.22885-10.1749 4.27641-12.1902 6.53749-12.1902 6.53749-1.8187 9.33928-1.8187 9.33928 0 1.13054 0" fill="#3A414A" transform="matrix(1 0 0 1.00211 487.229 369.907)"/><path d="M9.58505-0.294925C10.1257 4.03064 3.68656 4.91541 1.52378 2.26109 1.32716 1.96616 1.22885 1.62208 1.13054 1.22885L3.53909 0.933928C3.68656 1.72039 4.32556 2.11363 5.21033 2.16278 7.1765 2.16278 7.27481 0.344079 7.1765-1.72039 6.6358-0.639003 5.70187 0 4.1781 0 1.57293 0 0.737311-2.11363 0.737311-4.76795 0.737311-7.52058 1.62208-9.48674 4.32556-9.53589 5.80018-9.53589 6.58665-8.84774 7.22565-7.86465L7.32396-9.33928 9.6342-9.33928ZM5.16118-1.72039C6.73411-1.72039 7.1765-3.04755 7.1765-4.8171 7.1765-6.53749 6.73411-7.86465 5.21033-7.86465 3.6374-7.86465 3.29332-6.43919 3.24417-4.76795 3.24417-2.9984 3.68656-1.72039 5.16118-1.72039" fill="#3A414A" transform="matrix(1 0 0 1.00211 501.975 369.907)"/><path d="M1.13054 0 1.13054-1.8187 4.12894-1.8187 4.12894-10.1257 1.22885-8.30704 1.22885-10.1749 4.27641-12.1902 6.53749-12.1902 6.53749-1.8187 9.33928-1.8187 9.33928 0 1.13054 0" fill="#3A414A" transform="matrix(1 0 0 1.00211 487.229 465.665)"/><path d="M9.58505-0.294925C10.1257 4.03064 3.68656 4.91541 1.52378 2.26109 1.32716 1.96616 1.22885 1.62208 1.13054 1.22885L3.53909 0.933928C3.68656 1.72039 4.32556 2.11363 5.21033 2.16278 7.1765 2.16278 7.27481 0.344079 7.1765-1.72039 6.6358-0.639003 5.70187 0 4.1781 0 1.57293 0 0.737311-2.11363 0.737311-4.76795 0.737311-7.52058 1.62208-9.48674 4.32556-9.53589 5.80018-9.53589 6.58665-8.84774 7.22565-7.86465L7.32396-9.33928 9.6342-9.33928ZM5.16118-1.72039C6.73411-1.72039 7.1765-3.04755 7.1765-4.8171 7.1765-6.53749 6.73411-7.86465 5.21033-7.86465 3.6374-7.86465 3.29332-6.43919 3.24417-4.76795 3.24417-2.9984 3.68656-1.72039 5.16118-1.72039" fill="#3A414A" transform="matrix(1 0 0 1.00211 501.975 465.665)"/><path d="M1.13054 0 1.13054-1.8187 4.12894-1.8187 4.12894-10.1257 1.22885-8.30704 1.22885-10.1749 4.27641-12.1902 6.53749-12.1902 6.53749-1.8187 9.33928-1.8187 9.33928 0 1.13054 0" fill="#3A414A" transform="matrix(1 0 0 1.00211 487.229 561.422)"/><path d="M9.58505-0.294925C10.1257 4.03064 3.68656 4.91541 1.52378 2.26109 1.32716 1.96616 1.22885 1.62208 1.13054 1.22885L3.53909 0.933928C3.68656 1.72039 4.32556 2.11363 5.21033 2.16278 7.1765 2.16278 7.27481 0.344079 7.1765-1.72039 6.6358-0.639003 5.70187 0 4.1781 0 1.57293 0 0.737311-2.11363 0.737311-4.76795 0.737311-7.52058 1.62208-9.48674 4.32556-9.53589 5.80018-9.53589 6.58665-8.84774 7.22565-7.86465L7.32396-9.33928 9.6342-9.33928ZM5.16118-1.72039C6.73411-1.72039 7.1765-3.04755 7.1765-4.8171 7.1765-6.53749 6.73411-7.86465 5.21033-7.86465 3.6374-7.86465 3.29332-6.43919 3.24417-4.76795 3.24417-2.9984 3.68656-1.72039 5.16118-1.72039" fill="#3A414A" transform="matrix(1 0 0 1.00211 501.975 561.422)"/><path d="M-873.8 3109.33-873.8 3116.7C-873.8 3119.34-875.939 3121.48-878.578 3121.48L-968.862 3121.48" stroke="#FF8F8F" stroke-width="2.38889" fill="none" transform="matrix(1 0 0 1.00211 1277.04 -2605.57)"/><path d="M-872.605 3109.36-874.994 3109.36-874.994 3108.14-872.605 3108.14Z" stroke="#FF8F8F" stroke-width="0.0398148" fill="#FF8F8F" transform="matrix(1 0 0 1.00211 1277.04 -2605.57)"/><path d="M-981.419 3121.48-970.056 3117.79-970.056 3125.18Z" stroke="#FF8F8F" stroke-width="2.38889" fill="#FF8F8F" transform="matrix(1 0 0 1.00211 1277.04 -2605.57)"/><path d="M-873.8 3012.36-873.8 3021.15C-873.8 3023.79-875.939 3025.93-878.578 3025.93L-984.788 3025.93" stroke="#FF8F8F" stroke-width="2.38889" fill="none" transform="matrix(1 0 0 1.00211 1277.04 -2605.57)"/><path d="M-872.605 3012.39-874.994 3012.39-874.994 3011.16-872.605 3011.16Z" stroke="#FF8F8F" stroke-width="0.0398148" fill="#FF8F8F" transform="matrix(1 0 0 1.00211 1277.04 -2605.57)"/><path d="M-997.345 3025.93-985.982 3022.23-985.982 3029.62Z" stroke="#FF8F8F" stroke-width="2.38889" fill="#FF8F8F" transform="matrix(1 0 0 1.00211 1277.04 -2605.57)"/><path d="M-873.8 3204.89-873.8 3212.26C-873.8 3214.9-875.939 3217.04-878.578 3217.04L-968.862 3217.04" stroke="#FF8F8F" stroke-width="2.38889" fill="none" transform="matrix(1 0 0 1.00211 1277.04 -2605.57)"/><path d="M-872.605 3204.92-874.994 3204.92-874.994 3203.69-872.605 3203.69Z" stroke="#FF8F8F" stroke-width="0.0398148" fill="#FF8F8F" transform="matrix(1 0 0 1.00211 1277.04 -2605.57)"/><path d="M-981.419 3217.04-970.056 3213.34-970.056 3220.73Z" stroke="#FF8F8F" stroke-width="2.38889" fill="#FF8F8F" transform="matrix(1 0 0 1.00211 1277.04 -2605.57)"/><path d="M8.94604-8.94604C8.94604-5.11203 4.8171-4.71879 3.48994-2.01532L9.14266-2.01532 9.14266 0 0.589849 0C0.294925-4.96456 5.4561-4.91541 6.48834-8.84774 6.53749-9.92913 5.89849-10.3715 4.86626-10.4207 3.73571-10.4207 3.29332-9.73251 3.14586-8.74943L0.737311-8.89689C0.983082-11.1088 2.31024-12.3377 4.86626-12.3377 7.37311-12.3377 8.94604-11.2563 8.94604-8.94604" fill="#4C535D" transform="matrix(1 0 0 1.00211 237.197 414.511)"/><path d="M1.1797 0 1.1797-2.65432 3.68656-2.65432 3.68656 0 1.1797 0" fill="#4C535D" transform="matrix(1 0 0 1.00211 247.028 414.511)"/><path d="M5.65272-7.8155C8.01212-7.8155 9.19182-6.34088 9.19182-3.98148 9.19182-1.32716 7.71719 0.196616 5.11203 0.196616 1.96616 0.196616 0.639003-2.26109 0.639003-5.80018 0.639003-10.6173 3.48994-13.8123 7.56973-11.6987 8.30704-11.3054 8.60197-10.519 8.89689-9.53589L6.58665-9.24097C6.34088-10.7647 4.22725-10.7647 3.58825-9.43759 3.24417-8.74943 3.04755-7.8155 3.04755-6.48834 3.48994-7.32396 4.42387-7.8155 5.65272-7.8155ZM5.01372-1.72039C6.19342-1.72039 6.78326-2.70347 6.78326-3.93233 6.78326-5.16118 6.24257-6.04595 4.96456-6.04595 3.83402-6.04595 3.19502-5.3578 3.19502-4.1781 3.19502-2.85094 3.73571-1.72039 5.01372-1.72039" fill="#4C535D" transform="matrix(1 0 0 1.00211 251.943 414.511)"/><path d="M8.94604-8.94604C8.94604-5.11203 4.8171-4.71879 3.48994-2.01532L9.14266-2.01532 9.14266 0 0.589849 0C0.294925-4.96456 5.4561-4.91541 6.48834-8.84774 6.53749-9.92913 5.89849-10.3715 4.86626-10.4207 3.73571-10.4207 3.29332-9.73251 3.14586-8.74943L0.737311-8.89689C0.983082-11.1088 2.31024-12.3377 4.86626-12.3377 7.37311-12.3377 8.94604-11.2563 8.94604-8.94604" fill="#4C535D" transform="matrix(1 0 0 1.00211 261.774 414.511)"/><path d="M9.58505-0.294925C10.1257 4.03064 3.68656 4.91541 1.52378 2.26109 1.32716 1.96616 1.22885 1.62208 1.13054 1.22885L3.53909 0.933928C3.68656 1.72039 4.32556 2.11363 5.21033 2.16278 7.1765 2.16278 7.27481 0.344079 7.1765-1.72039 6.6358-0.639003 5.70187 0 4.1781 0 1.57293 0 0.737311-2.11363 0.737311-4.76795 0.737311-7.52058 1.62208-9.48674 4.32556-9.53589 5.80018-9.53589 6.58665-8.84774 7.22565-7.86465L7.32396-9.33928 9.6342-9.33928ZM5.16118-1.72039C6.73411-1.72039 7.1765-3.04755 7.1765-4.8171 7.1765-6.53749 6.73411-7.86465 5.21033-7.86465 3.6374-7.86465 3.29332-6.43919 3.24417-4.76795 3.24417-2.9984 3.68656-1.72039 5.16118-1.72039" fill="#4C535D" transform="matrix(1 0 0 1.00211 276.52 414.511)"/><path d="M3.29332-6.14426C3.29332-3.53909 4.32556-1.86786 6.88157-1.8187 8.70027-1.76955 9.53589-2.90009 10.0766-4.12894L12.2885-3.29332C11.4529-1.22885 9.78166 0.196616 6.88157 0.196616 2.85094 0.196616 0.983082-2.06447 0.737311-6.14426 0.393233-11.5512 6.09511-13.8123 10.3715-11.4037 11.2563-10.9122 11.797-9.97828 12.1411-8.94604L9.87997-8.3562C9.48674-9.58505 8.40535-10.3715 6.83242-10.3715 4.27641-10.3715 3.34248-8.70027 3.29332-6.14426" fill="#4C535D" transform="matrix(1 0 0 1.00211 292.2 414.511)"/><path d="M6.88157-12.3377C10.8139-12.3377 13.0258-10.1257 13.0258-6.14426 13.0258-2.16278 10.7647 0.196616 6.83242 0.196616 2.85094 0.196616 0.737311-2.16278 0.737311-6.14426 0.737311-10.1257 2.90009-12.3377 6.88157-12.3377ZM6.83242-1.8187C9.38843-1.8187 10.4207-3.53909 10.4207-6.14426 10.4207-8.60197 9.38843-10.3715 6.88157-10.3715 4.32556-10.3715 3.29332-8.65112 3.29332-6.14426 3.29332-3.6374 4.37471-1.8187 6.83242-1.8187" fill="#4C535D" transform="matrix(1 0 0 1.00211 304.931 414.511)"/><path d="M8.94604-8.94604C8.94604-5.11203 4.8171-4.71879 3.48994-2.01532L9.14266-2.01532 9.14266 0 0.589849 0C0.294925-4.96456 5.4561-4.91541 6.48834-8.84774 6.53749-9.92913 5.89849-10.3715 4.86626-10.4207 3.73571-10.4207 3.29332-9.73251 3.14586-8.74943L0.737311-8.89689C0.983082-11.1088 2.31024-12.3377 4.86626-12.3377 7.37311-12.3377 8.94604-11.2563 8.94604-8.94604" fill="#4C535D" transform="matrix(1 0 0 1.00211 318.694 414.511)"/><path d="M8.94604-8.94604C8.94604-5.11203 4.8171-4.71879 3.48994-2.01532L9.14266-2.01532 9.14266 0 0.589849 0C0.294925-4.96456 5.4561-4.91541 6.48834-8.84774 6.53749-9.92913 5.89849-10.3715 4.86626-10.4207 3.73571-10.4207 3.29332-9.73251 3.14586-8.74943L0.737311-8.89689C0.983082-11.1088 2.31024-12.3377 4.86626-12.3377 7.37311-12.3377 8.94604-11.2563 8.94604-8.94604" fill="#4C535D" transform="matrix(1 0 0 1.00211 237.197 504.594)"/><path d="M1.1797 0 1.1797-2.65432 3.68656-2.65432 3.68656 0 1.1797 0" fill="#4C535D" transform="matrix(1 0 0 1.00211 247.028 504.594)"/><path d="M8.94604-8.94604C8.94604-5.11203 4.8171-4.71879 3.48994-2.01532L9.14266-2.01532 9.14266 0 0.589849 0C0.294925-4.96456 5.4561-4.91541 6.48834-8.84774 6.53749-9.92913 5.89849-10.3715 4.86626-10.4207 3.73571-10.4207 3.29332-9.73251 3.14586-8.74943L0.737311-8.89689C0.983082-11.1088 2.31024-12.3377 4.86626-12.3377 7.37311-12.3377 8.94604-11.2563 8.94604-8.94604" fill="#4C535D" transform="matrix(1 0 0 1.00211 251.943 504.594)"/><path d="M5.65272-7.8155C8.01212-7.8155 9.19182-6.34088 9.19182-3.98148 9.19182-1.32716 7.71719 0.196616 5.11203 0.196616 1.96616 0.196616 0.639003-2.26109 0.639003-5.80018 0.639003-10.6173 3.48994-13.8123 7.56973-11.6987 8.30704-11.3054 8.60197-10.519 8.89689-9.53589L6.58665-9.24097C6.34088-10.7647 4.22725-10.7647 3.58825-9.43759 3.24417-8.74943 3.04755-7.8155 3.04755-6.48834 3.48994-7.32396 4.42387-7.8155 5.65272-7.8155ZM5.01372-1.72039C6.19342-1.72039 6.78326-2.70347 6.78326-3.93233 6.78326-5.16118 6.24257-6.04595 4.96456-6.04595 3.83402-6.04595 3.19502-5.3578 3.19502-4.1781 3.19502-2.85094 3.73571-1.72039 5.01372-1.72039" fill="#4C535D" transform="matrix(1 0 0 1.00211 261.774 504.594)"/><path d="M9.58505-0.294925C10.1257 4.03064 3.68656 4.91541 1.52378 2.26109 1.32716 1.96616 1.22885 1.62208 1.13054 1.22885L3.53909 0.933928C3.68656 1.72039 4.32556 2.11363 5.21033 2.16278 7.1765 2.16278 7.27481 0.344079 7.1765-1.72039 6.6358-0.639003 5.70187 0 4.1781 0 1.57293 0 0.737311-2.11363 0.737311-4.76795 0.737311-7.52058 1.62208-9.48674 4.32556-9.53589 5.80018-9.53589 6.58665-8.84774 7.22565-7.86465L7.32396-9.33928 9.6342-9.33928ZM5.16118-1.72039C6.73411-1.72039 7.1765-3.04755 7.1765-4.8171 7.1765-6.53749 6.73411-7.86465 5.21033-7.86465 3.6374-7.86465 3.29332-6.43919 3.24417-4.76795 3.24417-2.9984 3.68656-1.72039 5.16118-1.72039" fill="#4C535D" transform="matrix(1 0 0 1.00211 276.52 504.594)"/><path d="M3.29332-6.14426C3.29332-3.53909 4.32556-1.86786 6.88157-1.8187 8.70027-1.76955 9.53589-2.90009 10.0766-4.12894L12.2885-3.29332C11.4529-1.22885 9.78166 0.196616 6.88157 0.196616 2.85094 0.196616 0.983082-2.06447 0.737311-6.14426 0.393233-11.5512 6.09511-13.8123 10.3715-11.4037 11.2563-10.9122 11.797-9.97828 12.1411-8.94604L9.87997-8.3562C9.48674-9.58505 8.40535-10.3715 6.83242-10.3715 4.27641-10.3715 3.34248-8.70027 3.29332-6.14426" fill="#4C535D" transform="matrix(1 0 0 1.00211 292.2 504.594)"/><path d="M6.88157-12.3377C10.8139-12.3377 13.0258-10.1257 13.0258-6.14426 13.0258-2.16278 10.7647 0.196616 6.83242 0.196616 2.85094 0.196616 0.737311-2.16278 0.737311-6.14426 0.737311-10.1257 2.90009-12.3377 6.88157-12.3377ZM6.83242-1.8187C9.38843-1.8187 10.4207-3.53909 10.4207-6.14426 10.4207-8.60197 9.38843-10.3715 6.88157-10.3715 4.32556-10.3715 3.29332-8.65112 3.29332-6.14426 3.29332-3.6374 4.37471-1.8187 6.83242-1.8187" fill="#4C535D" transform="matrix(1 0 0 1.00211 304.931 504.594)"/><path d="M8.94604-8.94604C8.94604-5.11203 4.8171-4.71879 3.48994-2.01532L9.14266-2.01532 9.14266 0 0.589849 0C0.294925-4.96456 5.4561-4.91541 6.48834-8.84774 6.53749-9.92913 5.89849-10.3715 4.86626-10.4207 3.73571-10.4207 3.29332-9.73251 3.14586-8.74943L0.737311-8.89689C0.983082-11.1088 2.31024-12.3377 4.86626-12.3377 7.37311-12.3377 8.94604-11.2563 8.94604-8.94604" fill="#4C535D" transform="matrix(1 0 0 1.00211 318.694 504.594)"/><path d="M8.94604-8.94604C8.94604-5.11203 4.8171-4.71879 3.48994-2.01532L9.14266-2.01532 9.14266 0 0.589849 0C0.294925-4.96456 5.4561-4.91541 6.48834-8.84774 6.53749-9.92913 5.89849-10.3715 4.86626-10.4207 3.73571-10.4207 3.29332-9.73251 3.14586-8.74943L0.737311-8.89689C0.983082-11.1088 2.31024-12.3377 4.86626-12.3377 7.37311-12.3377 8.94604-11.2563 8.94604-8.94604" fill="#4C535D" transform="matrix(1 0 0 1.00211 239.32 606.026)"/><path d="M1.1797 0 1.1797-2.65432 3.68656-2.65432 3.68656 0 1.1797 0" fill="#4C535D" transform="matrix(1 0 0 1.00211 249.151 606.026)"/><path d="M8.94604-8.94604C8.94604-5.11203 4.8171-4.71879 3.48994-2.01532L9.14266-2.01532 9.14266 0 0.589849 0C0.294925-4.96456 5.4561-4.91541 6.48834-8.84774 6.53749-9.92913 5.89849-10.3715 4.86626-10.4207 3.73571-10.4207 3.29332-9.73251 3.14586-8.74943L0.737311-8.89689C0.983082-11.1088 2.31024-12.3377 4.86626-12.3377 7.37311-12.3377 8.94604-11.2563 8.94604-8.94604" fill="#4C535D" transform="matrix(1 0 0 1.00211 254.067 606.026)"/><path d="M8.94604-8.94604C8.94604-5.11203 4.8171-4.71879 3.48994-2.01532L9.14266-2.01532 9.14266 0 0.589849 0C0.294925-4.96456 5.4561-4.91541 6.48834-8.84774 6.53749-9.92913 5.89849-10.3715 4.86626-10.4207 3.73571-10.4207 3.29332-9.73251 3.14586-8.74943L0.737311-8.89689C0.983082-11.1088 2.31024-12.3377 4.86626-12.3377 7.37311-12.3377 8.94604-11.2563 8.94604-8.94604" fill="#4C535D" transform="matrix(1 0 0 1.00211 263.897 606.026)"/><path d="M9.58505-0.294925C10.1257 4.03064 3.68656 4.91541 1.52378 2.26109 1.32716 1.96616 1.22885 1.62208 1.13054 1.22885L3.53909 0.933928C3.68656 1.72039 4.32556 2.11363 5.21033 2.16278 7.1765 2.16278 7.27481 0.344079 7.1765-1.72039 6.6358-0.639003 5.70187 0 4.1781 0 1.57293 0 0.737311-2.11363 0.737311-4.76795 0.737311-7.52058 1.62208-9.48674 4.32556-9.53589 5.80018-9.53589 6.58665-8.84774 7.22565-7.86465L7.32396-9.33928 9.6342-9.33928ZM5.16118-1.72039C6.73411-1.72039 7.1765-3.04755 7.1765-4.8171 7.1765-6.53749 6.73411-7.86465 5.21033-7.86465 3.6374-7.86465 3.29332-6.43919 3.24417-4.76795 3.24417-2.9984 3.68656-1.72039 5.16118-1.72039" fill="#4C535D" transform="matrix(1 0 0 1.00211 278.644 606.026)"/><path d="M3.29332-6.14426C3.29332-3.53909 4.32556-1.86786 6.88157-1.8187 8.70027-1.76955 9.53589-2.90009 10.0766-4.12894L12.2885-3.29332C11.4529-1.22885 9.78166 0.196616 6.88157 0.196616 2.85094 0.196616 0.983082-2.06447 0.737311-6.14426 0.393233-11.5512 6.09511-13.8123 10.3715-11.4037 11.2563-10.9122 11.797-9.97828 12.1411-8.94604L9.87997-8.3562C9.48674-9.58505 8.40535-10.3715 6.83242-10.3715 4.27641-10.3715 3.34248-8.70027 3.29332-6.14426" fill="#4C535D" transform="matrix(1 0 0 1.00211 294.324 606.026)"/><path d="M6.88157-12.3377C10.8139-12.3377 13.0258-10.1257 13.0258-6.14426 13.0258-2.16278 10.7647 0.196616 6.83242 0.196616 2.85094 0.196616 0.737311-2.16278 0.737311-6.14426 0.737311-10.1257 2.90009-12.3377 6.88157-12.3377ZM6.83242-1.8187C9.38843-1.8187 10.4207-3.53909 10.4207-6.14426 10.4207-8.60197 9.38843-10.3715 6.88157-10.3715 4.32556-10.3715 3.29332-8.65112 3.29332-6.14426 3.29332-3.6374 4.37471-1.8187 6.83242-1.8187" fill="#4C535D" transform="matrix(1 0 0 1.00211 307.055 606.026)"/><path d="M8.94604-8.94604C8.94604-5.11203 4.8171-4.71879 3.48994-2.01532L9.14266-2.01532 9.14266 0 0.589849 0C0.294925-4.96456 5.4561-4.91541 6.48834-8.84774 6.53749-9.92913 5.89849-10.3715 4.86626-10.4207 3.73571-10.4207 3.29332-9.73251 3.14586-8.74943L0.737311-8.89689C0.983082-11.1088 2.31024-12.3377 4.86626-12.3377 7.37311-12.3377 8.94604-11.2563 8.94604-8.94604" fill="#4C535D" transform="matrix(1 0 0 1.00211 320.818 606.026)"/><path d="M-448.259 3118.18-448.259 3152.84" stroke="#FF8F8F" stroke-width="2.38889" fill="none" transform="matrix(1 0 0 1.00211 1277.04 -2605.57)"/><path d="M-447.065 3118.22-449.454 3118.22-449.454 3116.98-447.065 3116.98Z" stroke="#FF8F8F" stroke-width="0.0398148" fill="#FF8F8F" transform="matrix(1 0 0 1.00211 1277.04 -2605.57)"/><path d="M-448.259 3165.4-451.946 3154.03-444.564 3154.03Z" stroke="#FF8F8F" stroke-width="2.38889" fill="#FF8F8F" transform="matrix(1 0 0 1.00211 1277.04 -2605.57)"/><path d="M1.13054 0 1.13054-1.8187 4.12894-1.8187 4.12894-10.1257 1.22885-8.30704 1.22885-10.1749 4.27641-12.1902 6.53749-12.1902 6.53749-1.8187 9.33928-1.8187 9.33928 0 1.13054 0" fill="#4C535D" transform="matrix(1 0 0 1.00211 793.08 591.485)"/><path d="M4.96456-12.3377C8.30704-12.3377 9.09351-9.68336 9.09351-6.09511 9.09351-2.4577 8.15958 0.196616 4.86626 0.196616 1.57293 0.196616 0.737311-2.55601 0.688157-6.09511 0.639003-9.78166 1.52378-12.3377 4.96456-12.3377ZM4.91541-1.72039C6.73411-1.96616 6.68496-3.98148 6.68496-6.09511 6.68496-8.20873 6.88157-10.4698 4.91541-10.4698 2.9984-10.4698 3.14586-8.25789 3.14586-6.09511 3.14586-3.98148 2.9984-1.91701 4.91541-1.72039" fill="#4C535D" transform="matrix(1 0 0 1.00211 802.911 591.485)"/><path d="M9.58505-0.294925C10.1257 4.03064 3.68656 4.91541 1.52378 2.26109 1.32716 1.96616 1.22885 1.62208 1.13054 1.22885L3.53909 0.933928C3.68656 1.72039 4.32556 2.11363 5.21033 2.16278 7.1765 2.16278 7.27481 0.344079 7.1765-1.72039 6.6358-0.639003 5.70187 0 4.1781 0 1.57293 0 0.737311-2.11363 0.737311-4.76795 0.737311-7.52058 1.62208-9.48674 4.32556-9.53589 5.80018-9.53589 6.58665-8.84774 7.22565-7.86465L7.32396-9.33928 9.6342-9.33928ZM5.16118-1.72039C6.73411-1.72039 7.1765-3.04755 7.1765-4.8171 7.1765-6.53749 6.73411-7.86465 5.21033-7.86465 3.6374-7.86465 3.29332-6.43919 3.24417-4.76795 3.24417-2.9984 3.68656-1.72039 5.16118-1.72039" fill="#4C535D" transform="matrix(1 0 0 1.00211 817.657 591.485)"/><path d="M3.29332-6.14426C3.29332-3.53909 4.32556-1.86786 6.88157-1.8187 8.70027-1.76955 9.53589-2.90009 10.0766-4.12894L12.2885-3.29332C11.4529-1.22885 9.78166 0.196616 6.88157 0.196616 2.85094 0.196616 0.983082-2.06447 0.737311-6.14426 0.393233-11.5512 6.09511-13.8123 10.3715-11.4037 11.2563-10.9122 11.797-9.97828 12.1411-8.94604L9.87997-8.3562C9.48674-9.58505 8.40535-10.3715 6.83242-10.3715 4.27641-10.3715 3.34248-8.70027 3.29332-6.14426" fill="#4C535D" transform="matrix(1 0 0 1.00211 833.337 591.485)"/><path d="M6.88157-12.3377C10.8139-12.3377 13.0258-10.1257 13.0258-6.14426 13.0258-2.16278 10.7647 0.196616 6.83242 0.196616 2.85094 0.196616 0.737311-2.16278 0.737311-6.14426 0.737311-10.1257 2.90009-12.3377 6.88157-12.3377ZM6.83242-1.8187C9.38843-1.8187 10.4207-3.53909 10.4207-6.14426 10.4207-8.60197 9.38843-10.3715 6.88157-10.3715 4.32556-10.3715 3.29332-8.65112 3.29332-6.14426 3.29332-3.6374 4.37471-1.8187 6.83242-1.8187" fill="#4C535D" transform="matrix(1 0 0 1.00211 846.068 591.485)"/><path d="M8.94604-8.94604C8.94604-5.11203 4.8171-4.71879 3.48994-2.01532L9.14266-2.01532 9.14266 0 0.589849 0C0.294925-4.96456 5.4561-4.91541 6.48834-8.84774 6.53749-9.92913 5.89849-10.3715 4.86626-10.4207 3.73571-10.4207 3.29332-9.73251 3.14586-8.74943L0.737311-8.89689C0.983082-11.1088 2.31024-12.3377 4.86626-12.3377 7.37311-12.3377 8.94604-11.2563 8.94604-8.94604" fill="#4C535D" transform="matrix(1 0 0 1.00211 859.831 591.485)"/></g></svg>